<svg width="24" height="24" viewBox="0 0 24 24" fill="none" xmlns="http://www.w3.org/2000/svg">
<path d="M23.1429 2.56641H0.857143C0.383036 2.56641 0 2.94944 0 3.42355V20.5664C0 21.0405 0.383036 21.4236 0.857143 21.4236H23.1429C23.617 21.4236 24 21.0405 24 20.5664V3.42355C24 2.94944 23.617 2.56641 23.1429 2.56641ZM22.0714 19.495H1.92857V4.49498H22.0714V19.495ZM14.633 11.0307H17.9384C17.9732 11.0307 18 10.9343 18 10.8164V9.53069C18 9.41284 17.9732 9.31641 17.9384 9.31641H14.633C14.5982 9.31641 14.5714 9.41284 14.5714 9.53069V10.8164C14.5714 10.9343 14.5982 11.0307 14.633 11.0307ZM14.7616 14.8878H19.7357C19.8402 14.8878 19.9259 14.7914 19.9259 14.6736V13.3878C19.9259 13.27 19.8402 13.1736 19.7357 13.1736H14.7616C14.6571 13.1736 14.5714 13.27 14.5714 13.3878V14.6736C14.5714 14.7914 14.6571 14.8878 14.7616 14.8878ZM4.28572 16.3075H5.46161C5.57411 16.3075 5.66518 16.2191 5.67321 16.1066C5.775 14.7539 6.90536 13.6825 8.27679 13.6825C9.64822 13.6825 10.7786 14.7539 10.8804 16.1066C10.8884 16.2191 10.9795 16.3075 11.092 16.3075H12.2679C12.2969 16.3075 12.3257 16.3016 12.3524 16.2902C12.3791 16.2788 12.4033 16.262 12.4233 16.241C12.4433 16.2199 12.4589 16.195 12.469 16.1678C12.4791 16.1405 12.4836 16.1115 12.4821 16.0825C12.4071 14.6548 11.625 13.4119 10.4839 12.7048C10.9871 12.1517 11.2652 11.4303 11.2634 10.6825C11.2634 9.02444 9.92679 7.68248 8.27947 7.68248C6.63214 7.68248 5.29554 9.02444 5.29554 10.6825C5.29554 11.4619 5.59018 12.1691 6.075 12.7048C5.4941 13.0648 5.00895 13.56 4.66098 14.1482C4.31302 14.7364 4.11258 15.4 4.07679 16.0825C4.06607 16.2057 4.1625 16.3075 4.28572 16.3075ZM8.27679 9.28962C9.04018 9.28962 9.66161 9.91373 9.66161 10.6825C9.66161 11.4512 9.04018 12.0753 8.27679 12.0753C7.51339 12.0753 6.89196 11.4512 6.89196 10.6825C6.89196 9.91373 7.51339 9.28962 8.27679 9.28962Z" fill="white"/>
</svg>
