<svg width="36" height="36" viewBox="0 0 36 36" fill="none" xmlns="http://www.w3.org/2000/svg">
<g clip-path="url(#clip0_22_8855)">
<path d="M30.8555 0H5.14118C4.43002 0 3.85547 0.574554 3.85547 1.28571V34.7143C3.85547 35.4254 4.43002 36 5.14118 36H30.8555C31.5666 36 32.1412 35.4254 32.1412 34.7143V1.28571C32.1412 0.574554 31.5666 0 30.8555 0ZM29.2483 33.1071H6.74833V25.0312H10.6818C11.1479 26.3491 11.9675 27.5344 13.0564 28.4344C14.4425 29.5795 16.1983 30.2143 17.9983 30.2143C19.7983 30.2143 21.5541 29.5835 22.9403 28.4344C24.0291 27.5344 24.8488 26.3491 25.3148 25.0312H29.2483V22.5H23.2858L23.0769 23.4924C22.5948 25.8951 20.4573 27.6429 17.9983 27.6429C15.5394 27.6429 13.4019 25.8951 12.9157 23.4924L12.7068 22.5H6.74833V2.89286H29.2483V33.1071ZM10.284 11.1295H25.7126C25.8894 11.1295 26.034 10.9848 26.034 10.808V8.87946C26.034 8.70268 25.8894 8.55804 25.7126 8.55804H10.284C10.1073 8.55804 9.96261 8.70268 9.96261 8.87946V10.808C9.96261 10.9848 10.1073 11.1295 10.284 11.1295ZM10.284 17.558H25.7126C25.8894 17.558 26.034 17.4134 26.034 17.2366V15.308C26.034 15.1312 25.8894 14.9866 25.7126 14.9866H10.284C10.1073 14.9866 9.96261 15.1312 9.96261 15.308V17.2366C9.96261 17.4134 10.1073 17.558 10.284 17.558Z" fill="white" fill-opacity="0.85"/>
</g>
<defs>
<clipPath id="clip0_22_8855">
<rect width="36" height="36" fill="white"/>
</clipPath>
</defs>
</svg>
