<svg width="24" height="24" viewBox="0 0 24 24" fill="none" xmlns="http://www.w3.org/2000/svg">
    <path d="M19.5262 4.76766H8.08866V2.78552C8.08866 2.60606 7.88241 2.50695 7.74312 2.61677L3.93955 5.61677C3.91394 5.63681 3.89323 5.66243 3.87898 5.69166C3.86474 5.7209 3.85733 5.753 3.85733 5.78552C3.85733 5.81804 3.86474 5.85014 3.87898 5.87938C3.89323 5.90861 3.91394 5.93423 3.93955 5.95427L7.74312 8.95427C7.88241 9.06409 8.08866 8.96498 8.08866 8.78552V6.80338H19.2047V19.3927H2.97259C2.85473 19.3927 2.7583 19.4891 2.7583 19.6069V21.2141C2.7583 21.3319 2.85473 21.4284 2.97259 21.4284H19.5262C20.4717 21.4284 21.2404 20.6596 21.2404 19.7141V6.48195C21.2404 5.53641 20.4717 4.76766 19.5262 4.76766Z" fill="#2A2A2A"/>
</svg>
