<svg width="26" height="26" viewBox="0 0 26 26" fill="none" xmlns="http://www.w3.org/2000/svg">
    <path d="M14.0712 0.144531H11.9283C11.7378 0.144531 11.6426 0.239769 11.6426 0.430246V11.6445H1.00056C0.810082 11.6445 0.714844 11.7398 0.714844 11.9302V14.0731C0.714844 14.2636 0.810082 14.3588 1.00056 14.3588H11.6426V25.5731C11.6426 25.7636 11.7378 25.8588 11.9283 25.8588H14.0712C14.2616 25.8588 14.3569 25.7636 14.3569 25.5731V14.3588H25.0006C25.191 14.3588 25.2863 14.2636 25.2863 14.0731V11.9302C25.2863 11.7398 25.191 11.6445 25.0006 11.6445H14.3569V0.430246C14.3569 0.239769 14.2616 0.144531 14.0712 0.144531Z" fill="#212121"/>
</svg>
