<svg width="282" height="38" viewBox="0 0 282 38" fill="none" xmlns="http://www.w3.org/2000/svg">
<path d="M8.37413 25.24C8.55013 26.456 9.07813 27.52 9.95813 28.432C10.8541 29.344 12.0461 30.048 13.5341 30.544C15.0221 31.04 16.7421 31.288 18.6941 31.288C20.5821 31.288 22.2141 31.104 23.5901 30.736C24.9661 30.368 26.0221 29.832 26.7581 29.128C27.5101 28.424 27.8861 27.592 27.8861 26.632C27.8861 25.832 27.6781 25.176 27.2621 24.664C26.8461 24.136 26.1581 23.712 25.1981 23.392C24.2381 23.072 22.9101 22.816 21.2141 22.624L13.9661 21.808C10.8621 21.472 8.33413 20.88 6.38213 20.032C4.43013 19.168 2.99013 18.032 2.06213 16.624C1.13413 15.216 0.670131 13.496 0.670131 11.464C0.670131 9.144 1.35813 7.144 2.73413 5.464C4.12613 3.784 6.09413 2.504 8.63813 1.624C11.1821 0.727998 14.1501 0.279998 17.5421 0.279998C20.8541 0.279998 23.8141 0.767998 26.4221 1.744C29.0461 2.704 31.1181 4.072 32.6381 5.848C34.1581 7.608 34.9901 9.64 35.1341 11.944H26.8781C26.7341 10.888 26.2621 9.968 25.4621 9.184C24.6621 8.4 23.5661 7.792 22.1741 7.36C20.7981 6.928 19.1981 6.712 17.3741 6.712C15.6461 6.712 14.1421 6.888 12.8621 7.24C11.5981 7.592 10.6141 8.104 9.91013 8.776C9.22213 9.448 8.87813 10.24 8.87813 11.152C8.87813 11.888 9.07013 12.496 9.45413 12.976C9.85413 13.456 10.5021 13.856 11.3981 14.176C12.3101 14.496 13.5421 14.752 15.0941 14.944L22.6061 15.856C25.9661 16.24 28.6141 16.824 30.5501 17.608C32.5021 18.376 33.9101 19.408 34.7741 20.704C35.6381 22 36.0701 23.672 36.0701 25.72C36.0701 28.104 35.3421 30.208 33.8861 32.032C32.4301 33.856 30.3741 35.264 27.7181 36.256C25.0781 37.232 22.0221 37.72 18.5501 37.72C14.9981 37.72 11.8381 37.208 9.07013 36.184C6.31813 35.144 4.15813 33.68 2.59013 31.792C1.03813 29.904 0.206131 27.72 0.0941305 25.24H8.37413ZM73.116 15.88V22.12H47.364V15.88H73.116ZM52.836 19L50.388 34.264L46.86 30.232H74.604V37H42.18L44.988 19L42.18 0.999997H74.364V7.768H46.86L50.388 3.736L52.836 19ZM90.8651 0.999997V33.376L87.2171 29.8H114.241V37H82.7291V0.999997H90.8651ZM150.456 15.88V22.12H124.704V15.88H150.456ZM130.176 19L127.728 34.264L124.2 30.232H151.944V37H119.52L122.328 19L119.52 0.999997H151.704V7.768H124.2L127.728 3.736L130.176 19ZM160.069 37V0.999997H168.181V30.376L165.901 28.744L188.149 0.999997H196.837L167.389 37H160.069ZM177.229 19.36L183.109 14.152L197.341 37H188.077L177.229 19.36ZM214.265 4.648H222.425V37H214.265V4.648ZM199.961 0.999997H236.729V8.2H199.961V0.999997ZM260.735 37.72C256.607 37.72 252.951 36.944 249.767 35.392C246.583 33.824 244.111 31.624 242.351 28.792C240.607 25.96 239.735 22.696 239.735 19C239.735 15.304 240.607 12.04 242.351 9.208C244.111 6.376 246.583 4.184 249.767 2.632C252.951 1.064 256.607 0.279998 260.735 0.279998C264.879 0.279998 268.543 1.064 271.727 2.632C274.911 4.184 277.375 6.376 279.119 9.208C280.879 12.04 281.759 15.304 281.759 19C281.759 22.696 280.879 25.96 279.119 28.792C277.375 31.624 274.911 33.824 271.727 35.392C268.543 36.944 264.879 37.72 260.735 37.72ZM260.735 30.448C263.343 30.448 265.607 29.984 267.527 29.056C269.447 28.128 270.919 26.808 271.943 25.096C272.983 23.368 273.503 21.336 273.503 19C273.503 16.664 272.983 14.64 271.943 12.928C270.919 11.2 269.447 9.872 267.527 8.944C265.607 8.016 263.343 7.552 260.735 7.552C258.143 7.552 255.887 8.016 253.967 8.944C252.047 9.872 250.567 11.2 249.527 12.928C248.487 14.64 247.967 16.664 247.967 19C247.967 21.336 248.487 23.368 249.527 25.096C250.567 26.808 252.047 28.128 253.967 29.056C255.887 29.984 258.143 30.448 260.735 30.448Z" fill="white"/>
</svg>
